<svg xmlns="http://www.w3.org/2000/svg" viewBox="0 0 800 220" width="800" height="220" role="img" aria-label="Cumulative merged pull requests over time">
  <defs>
    <linearGradient id="area" x1="0" y1="0" x2="0" y2="1">
      <stop offset="0%" stop-color="#7aa2f7" stop-opacity="0.45"/>
      <stop offset="100%" stop-color="#7aa2f7" stop-opacity="0"/>
    </linearGradient>
    <linearGradient id="stroke" x1="0" y1="0" x2="1" y2="0">
      <stop offset="0%" stop-color="#bb9af7"/>
      <stop offset="100%" stop-color="#7aa2f7"/>
    </linearGradient>
    <style>
      text { font-family: 'Segoe UI', Ubuntu, Helvetica, Arial, sans-serif; }
      .title { fill: #c9d1d9; font-size: 15px; font-weight: 600; }
      .total { fill: #bb9af7; font-size: 13px; font-weight: 600; }
      .ax { fill: #6b7785; font-size: 10px; }
      .upd { fill: #3d4754; font-size: 9px; }
    </style>
  </defs>
  <rect x="0.5" y="0.5" width="799" height="219" rx="10"
        fill="#0d1117" stroke="#1e2633"/>
  <text x="20" y="28" class="title">Merged Pull Requests Over Time</text>
  <text x="776" y="28" text-anchor="end" class="total">81 merged</text>
  <line x1="48" y1="186.0" x2="776" y2="186.0" stroke="#1e2633" stroke-width="1"/><text x="40" y="190.0" text-anchor="end" class="ax">0</text><line x1="48" y1="158.0" x2="776" y2="158.0" stroke="#1e2633" stroke-width="1"/><text x="40" y="162.0" text-anchor="end" class="ax">20</text><line x1="48" y1="130.0" x2="776" y2="130.0" stroke="#1e2633" stroke-width="1"/><text x="40" y="134.0" text-anchor="end" class="ax">40</text><line x1="48" y1="102.0" x2="776" y2="102.0" stroke="#1e2633" stroke-width="1"/><text x="40" y="106.0" text-anchor="end" class="ax">60</text><line x1="48" y1="74.0" x2="776" y2="74.0" stroke="#1e2633" stroke-width="1"/><text x="40" y="78.0" text-anchor="end" class="ax">80</text><line x1="48" y1="46.0" x2="776" y2="46.0" stroke="#1e2633" stroke-width="1"/><text x="40" y="50.0" text-anchor="end" class="ax">100</text>
  <path d="M 48.0,186.0 L 48.0,184.6 L 67.7,184.6 L 87.4,184.6 L 107.0,184.6 L 126.7,184.6 L 146.4,184.6 L 166.1,184.6 L 185.7,184.6 L 205.4,184.6 L 225.1,184.6 L 244.8,184.6 L 264.4,184.6 L 284.1,184.6 L 303.8,184.6 L 323.5,184.6 L 343.1,184.6 L 362.8,184.6 L 382.5,184.6 L 402.2,184.6 L 421.8,184.6 L 441.5,181.8 L 461.2,179.0 L 480.9,174.8 L 500.5,172.0 L 520.2,169.2 L 539.9,167.8 L 559.6,167.8 L 579.2,167.8 L 598.9,163.6 L 618.6,163.6 L 638.3,163.6 L 657.9,159.4 L 677.6,159.4 L 697.3,155.2 L 717.0,151.0 L 736.6,148.2 L 756.3,148.2 L 776.0,72.6 L 776.0,186.0 Z" fill="url(#area)"/>
  <path d="M 48.0,184.6 L 67.7,184.6 L 87.4,184.6 L 107.0,184.6 L 126.7,184.6 L 146.4,184.6 L 166.1,184.6 L 185.7,184.6 L 205.4,184.6 L 225.1,184.6 L 244.8,184.6 L 264.4,184.6 L 284.1,184.6 L 303.8,184.6 L 323.5,184.6 L 343.1,184.6 L 362.8,184.6 L 382.5,184.6 L 402.2,184.6 L 421.8,184.6 L 441.5,181.8 L 461.2,179.0 L 480.9,174.8 L 500.5,172.0 L 520.2,169.2 L 539.9,167.8 L 559.6,167.8 L 579.2,167.8 L 598.9,163.6 L 618.6,163.6 L 638.3,163.6 L 657.9,159.4 L 677.6,159.4 L 697.3,155.2 L 717.0,151.0 L 736.6,148.2 L 756.3,148.2 L 776.0,72.6" fill="none" stroke="url(#stroke)" stroke-width="2.5"
        stroke-linejoin="round" stroke-linecap="round"/>
  <circle cx="776.0" cy="72.6" r="4" fill="#bb9af7"
          stroke="#0d1117" stroke-width="2"/>
  <text x="48.0" y="204.0" text-anchor="start" class="ax">May '23</text><text x="185.7" y="204.0" text-anchor="middle" class="ax">Dec '23</text><text x="343.1" y="204.0" text-anchor="middle" class="ax">Aug '24</text><text x="480.9" y="204.0" text-anchor="middle" class="ax">Mar '25</text><text x="638.3" y="204.0" text-anchor="middle" class="ax">Nov '25</text><text x="776.0" y="204.0" text-anchor="end" class="ax">Jun '26</text>
  <text x="776" y="210" text-anchor="end" class="upd">updated 2026-06-06</text>
</svg>
