<svg xmlns="http://www.w3.org/2000/svg" viewBox="0 0 800 220" width="800" height="220" role="img" aria-label="Cumulative merged pull requests over time">
  <defs>
    <linearGradient id="area" x1="0" y1="0" x2="0" y2="1">
      <stop offset="0%" stop-color="#7aa2f7" stop-opacity="0.45"/>
      <stop offset="100%" stop-color="#7aa2f7" stop-opacity="0"/>
    </linearGradient>
    <linearGradient id="stroke" x1="0" y1="0" x2="1" y2="0">
      <stop offset="0%" stop-color="#bb9af7"/>
      <stop offset="100%" stop-color="#7aa2f7"/>
    </linearGradient>
    <style>
      text { font-family: 'Segoe UI', Ubuntu, Helvetica, Arial, sans-serif; }
      .title { fill: #c9d1d9; font-size: 15px; font-weight: 600; }
      .total { fill: #bb9af7; font-size: 13px; font-weight: 600; }
      .ax { fill: #6b7785; font-size: 10px; }
      .upd { fill: #3d4754; font-size: 9px; }
    </style>
  </defs>
  <rect x="0.5" y="0.5" width="799" height="219" rx="10"
        fill="#0d1117" stroke="#1e2633"/>
  <text x="20" y="28" class="title">Merged Pull Requests Over Time</text>
  <text x="760" y="28" text-anchor="end" class="total">54 merged</text>
  <line x1="48" y1="186.0" x2="760" y2="186.0" stroke="#1e2633" stroke-width="1"/><text x="40" y="190.0" text-anchor="end" class="ax">0</text><line x1="48" y1="162.7" x2="760" y2="162.7" stroke="#1e2633" stroke-width="1"/><text x="40" y="166.7" text-anchor="end" class="ax">10</text><line x1="48" y1="139.3" x2="760" y2="139.3" stroke="#1e2633" stroke-width="1"/><text x="40" y="143.3" text-anchor="end" class="ax">20</text><line x1="48" y1="116.0" x2="760" y2="116.0" stroke="#1e2633" stroke-width="1"/><text x="40" y="120.0" text-anchor="end" class="ax">30</text><line x1="48" y1="92.7" x2="760" y2="92.7" stroke="#1e2633" stroke-width="1"/><text x="40" y="96.7" text-anchor="end" class="ax">40</text><line x1="48" y1="69.3" x2="760" y2="69.3" stroke="#1e2633" stroke-width="1"/><text x="40" y="73.3" text-anchor="end" class="ax">50</text><line x1="48" y1="46.0" x2="760" y2="46.0" stroke="#1e2633" stroke-width="1"/><text x="40" y="50.0" text-anchor="end" class="ax">60</text>
  <path d="M 48.0,186.0 L 48.0,183.7 L 67.2,183.7 L 86.5,183.7 L 105.7,183.7 L 125.0,183.7 L 144.2,183.7 L 163.5,183.7 L 182.7,183.7 L 201.9,183.7 L 221.2,183.7 L 240.4,183.7 L 259.7,183.7 L 278.9,183.7 L 298.2,183.7 L 317.4,183.7 L 336.6,183.7 L 355.9,183.7 L 375.1,183.7 L 394.4,183.7 L 413.6,183.7 L 432.9,183.7 L 452.1,183.7 L 471.4,181.3 L 490.6,181.3 L 509.8,176.7 L 529.1,174.3 L 548.3,174.3 L 567.6,174.3 L 586.8,174.3 L 606.1,174.3 L 625.3,174.3 L 644.5,167.3 L 663.8,167.3 L 683.0,167.3 L 702.3,160.3 L 721.5,155.7 L 740.8,155.7 L 760.0,60.0 L 760.0,186.0 Z" fill="url(#area)"/>
  <path d="M 48.0,183.7 L 67.2,183.7 L 86.5,183.7 L 105.7,183.7 L 125.0,183.7 L 144.2,183.7 L 163.5,183.7 L 182.7,183.7 L 201.9,183.7 L 221.2,183.7 L 240.4,183.7 L 259.7,183.7 L 278.9,183.7 L 298.2,183.7 L 317.4,183.7 L 336.6,183.7 L 355.9,183.7 L 375.1,183.7 L 394.4,183.7 L 413.6,183.7 L 432.9,183.7 L 452.1,183.7 L 471.4,181.3 L 490.6,181.3 L 509.8,176.7 L 529.1,174.3 L 548.3,174.3 L 567.6,174.3 L 586.8,174.3 L 606.1,174.3 L 625.3,174.3 L 644.5,167.3 L 663.8,167.3 L 683.0,167.3 L 702.3,160.3 L 721.5,155.7 L 740.8,155.7 L 760.0,60.0" fill="none" stroke="url(#stroke)" stroke-width="2.5"
        stroke-linejoin="round" stroke-linecap="round"/>
  <circle cx="760.0" cy="60.0" r="4" fill="#bb9af7"
          stroke="#0d1117" stroke-width="2"/>
  <text x="48.0" y="200.0" text-anchor="start" class="ax">May '23</text><text x="182.7" y="200.0" text-anchor="middle" class="ax">Dec '23</text><text x="336.6" y="200.0" text-anchor="middle" class="ax">Aug '24</text><text x="471.4" y="200.0" text-anchor="middle" class="ax">Mar '25</text><text x="625.3" y="200.0" text-anchor="middle" class="ax">Nov '25</text><text x="760.0" y="200.0" text-anchor="end" class="ax">Jun '26</text>
  <text x="20" y="213" text-anchor="start" class="upd">updated 2026-06-06</text>
</svg>
