<svg xmlns="http://www.w3.org/2000/svg" viewBox="0 0 800 220" width="800" height="220" role="img" aria-label="Cumulative merged pull requests over time">
  <defs>
    <linearGradient id="area" x1="0" y1="0" x2="0" y2="1">
      <stop offset="0%" stop-color="#7aa2f7" stop-opacity="0.45"/>
      <stop offset="100%" stop-color="#7aa2f7" stop-opacity="0"/>
    </linearGradient>
    <linearGradient id="stroke" x1="0" y1="0" x2="1" y2="0">
      <stop offset="0%" stop-color="#bb9af7"/>
      <stop offset="100%" stop-color="#7aa2f7"/>
    </linearGradient>
    <style>
      text { font-family: 'Segoe UI', Ubuntu, Helvetica, Arial, sans-serif; }
      .title { fill: #c9d1d9; font-size: 15px; font-weight: 600; }
      .total { fill: #bb9af7; font-size: 13px; font-weight: 600; }
      .ax { fill: #6b7785; font-size: 10px; }
      .upd { fill: #3d4754; font-size: 9px; }
    </style>
  </defs>
  <rect x="0.5" y="0.5" width="799" height="219" rx="10"
        fill="#0d1117" stroke="#1e2633"/>
  <text x="20" y="28" class="title">Merged Pull Requests Over Time</text>
  <text x="760" y="28" text-anchor="end" class="total">81 merged</text>
  <line x1="48" y1="186.0" x2="760" y2="186.0" stroke="#1e2633" stroke-width="1"/><text x="40" y="190.0" text-anchor="end" class="ax">0</text><line x1="48" y1="158.0" x2="760" y2="158.0" stroke="#1e2633" stroke-width="1"/><text x="40" y="162.0" text-anchor="end" class="ax">20</text><line x1="48" y1="130.0" x2="760" y2="130.0" stroke="#1e2633" stroke-width="1"/><text x="40" y="134.0" text-anchor="end" class="ax">40</text><line x1="48" y1="102.0" x2="760" y2="102.0" stroke="#1e2633" stroke-width="1"/><text x="40" y="106.0" text-anchor="end" class="ax">60</text><line x1="48" y1="74.0" x2="760" y2="74.0" stroke="#1e2633" stroke-width="1"/><text x="40" y="78.0" text-anchor="end" class="ax">80</text><line x1="48" y1="46.0" x2="760" y2="46.0" stroke="#1e2633" stroke-width="1"/><text x="40" y="50.0" text-anchor="end" class="ax">100</text>
  <path d="M 48.0,186.0 L 48.0,184.6 L 67.2,184.6 L 86.5,184.6 L 105.7,184.6 L 125.0,184.6 L 144.2,184.6 L 163.5,184.6 L 182.7,184.6 L 201.9,184.6 L 221.2,184.6 L 240.4,184.6 L 259.7,184.6 L 278.9,184.6 L 298.2,184.6 L 317.4,184.6 L 336.6,184.6 L 355.9,184.6 L 375.1,184.6 L 394.4,184.6 L 413.6,184.6 L 432.9,181.8 L 452.1,179.0 L 471.4,174.8 L 490.6,172.0 L 509.8,169.2 L 529.1,167.8 L 548.3,167.8 L 567.6,167.8 L 586.8,163.6 L 606.1,163.6 L 625.3,163.6 L 644.5,159.4 L 663.8,159.4 L 683.0,155.2 L 702.3,151.0 L 721.5,148.2 L 740.8,148.2 L 760.0,72.6 L 760.0,186.0 Z" fill="url(#area)"/>
  <path d="M 48.0,184.6 L 67.2,184.6 L 86.5,184.6 L 105.7,184.6 L 125.0,184.6 L 144.2,184.6 L 163.5,184.6 L 182.7,184.6 L 201.9,184.6 L 221.2,184.6 L 240.4,184.6 L 259.7,184.6 L 278.9,184.6 L 298.2,184.6 L 317.4,184.6 L 336.6,184.6 L 355.9,184.6 L 375.1,184.6 L 394.4,184.6 L 413.6,184.6 L 432.9,181.8 L 452.1,179.0 L 471.4,174.8 L 490.6,172.0 L 509.8,169.2 L 529.1,167.8 L 548.3,167.8 L 567.6,167.8 L 586.8,163.6 L 606.1,163.6 L 625.3,163.6 L 644.5,159.4 L 663.8,159.4 L 683.0,155.2 L 702.3,151.0 L 721.5,148.2 L 740.8,148.2 L 760.0,72.6" fill="none" stroke="url(#stroke)" stroke-width="2.5"
        stroke-linejoin="round" stroke-linecap="round"/>
  <circle cx="760.0" cy="72.6" r="4" fill="#bb9af7"
          stroke="#0d1117" stroke-width="2"/>
  <text x="48.0" y="200.0" text-anchor="start" class="ax">May '23</text><text x="182.7" y="200.0" text-anchor="middle" class="ax">Dec '23</text><text x="336.6" y="200.0" text-anchor="middle" class="ax">Aug '24</text><text x="471.4" y="200.0" text-anchor="middle" class="ax">Mar '25</text><text x="625.3" y="200.0" text-anchor="middle" class="ax">Nov '25</text><text x="760.0" y="200.0" text-anchor="end" class="ax">Jun '26</text>
  <text x="20" y="213" text-anchor="start" class="upd">updated 2026-06-06</text>
</svg>
